<?xml version="1.0" standalone="no"?>
<!DOCTYPE svg PUBLIC "-//W3C//DTD SVG 20010904//EN"
 "http://www.w3.org/TR/2001/REC-SVG-20010904/DTD/svg10.dtd">
<svg version="1.0" xmlns="http://www.w3.org/2000/svg"
 width="1024.000000pt" height="1024.000000pt" viewBox="0 0 1024.000000 1024.000000"
 preserveAspectRatio="xMidYMid meet">
<metadata>
Created by potrace 1.11, written by Peter Selinger 2001-2013
</metadata>
<g transform="translate(0.000000,1024.000000) scale(0.100000,-0.100000)"
fill="#000000" stroke="none">
<path d="M1350 4925 l0 -1575 606 0 c657 0 734 5 889 55 355 116 556 376 596
770 39 383 -119 699 -433 865 l-68 36 33 19 c138 79 261 255 303 433 23 95 14
319 -16 422 -89 307 -326 493 -690 540 -41 5 -333 10 -647 10 l-573 0 0 -1575z
m1188 1180 c244 -58 369 -242 341 -502 -21 -193 -138 -321 -337 -369 -43 -10
-151 -13 -429 -14 l-373 0 0 450 0 450 368 0 c290 0 380 -3 430 -15z m113
-1292 c164 -46 269 -124 329 -246 76 -155 77 -402 2 -560 -57 -122 -153 -199
-305 -246 -81 -25 -85 -25 -509 -29 l-428 -3 0 556 0 557 418 -4 c387 -4 423
-6 493 -25z"/>
<path d="M4830 6496 c0 -3 -243 -708 -540 -1567 -297 -859 -540 -1566 -540
-1570 0 -5 87 -9 194 -9 l194 0 139 418 140 417 604 3 604 2 140 -420 140
-420 197 0 197 0 -76 223 c-42 122 -287 830 -544 1572 l-466 1350 -192 3
c-105 1 -191 0 -191 -2z m197 -1924 c-259 -1 -472 0 -475 2 -3 4 429 1304 464
1396 3 8 113 -302 244 -690 l237 -705 -470 -3z"/>
<path d="M6670 4775 l0 -165 1390 0 1390 0 0 165 0 165 -1390 0 -1390 0 0
-165z"/>
</g>
</svg>
